<?xml version="1.0" encoding="UTF-8" standalone="no"?>
<!DOCTYPE svg PUBLIC "-//W3C//DTD SVG 1.1//EN"
 "http://www.w3.org/Graphics/SVG/1.1/DTD/svg11.dtd">
<!-- Generated by graphviz version 2.43.0 (0)
 -->
<!-- Title: netoptim/netoptim_detail.hpp Pages: 1 -->
<svg width="391pt" height="148pt"
 viewBox="0.00 0.00 390.50 148.00" xmlns="http://www.w3.org/2000/svg" xmlns:xlink="http://www.w3.org/1999/xlink">
<g id="graph0" class="graph" transform="scale(1 1) rotate(0) translate(4 144)">
<title>netoptim/netoptim_detail.hpp</title>
<!-- Node1 -->
<g id="Node000001" class="node">
<title>Node1</title>
<g id="a_Node000001"><a xlink:title="Internal implementation helpers shared by the netoptim algorithms.">
<polygon fill="#999999" stroke="#666666" points="268.5,-140 106.5,-140 106.5,-121 268.5,-121 268.5,-140"/>
<text text-anchor="middle" x="187.5" y="-128" font-family="Helvetica,sans-Serif" font-size="10.00">netoptim/netoptim_detail.hpp</text>
</a>
</g>
</g>
<!-- Node2 -->
<g id="Node000002" class="node">
<title>Node2</title>
<g id="a_Node000002"><a xlink:href="min__cycle__ratio_8hpp.html" target="_top" xlink:title="Minimum cost&#45;to&#45;time cycle ratio problem solver.">
<polygon fill="white" stroke="#666666" points="113,-30 0,-30 0,0 113,0 113,-30"/>
<text text-anchor="start" x="8" y="-18" font-family="Helvetica,sans-Serif" font-size="10.00">netoptim/min_cycle</text>
<text text-anchor="middle" x="56.5" y="-7" font-family="Helvetica,sans-Serif" font-size="10.00">_ratio.hpp</text>
</a>
</g>
</g>
<!-- Node1&#45;&gt;Node2 -->
<g id="edge1_Node000001_Node000002" class="edge">
<title>Node1&#45;&gt;Node2</title>
<g id="a_edge1_Node000001_Node000002"><a xlink:title=" ">
<path fill="none" stroke="#63b8ff" d="M119.09,-119.04C80.65,-111.62 38.11,-100.25 26.5,-85 13.68,-68.16 29.1,-45 42.15,-30.27"/>
<polygon fill="#63b8ff" stroke="#63b8ff" points="118.8,-122.55 129.28,-120.94 120.09,-115.67 118.8,-122.55"/>
</a>
</g>
</g>
<!-- Node3 -->
<g id="Node000003" class="node">
<title>Node3</title>
<g id="a_Node000003"><a xlink:href="network__oracle_8hpp.html" target="_top" xlink:title="Oracle for Parametric Network Problems.">
<polygon fill="white" stroke="#666666" points="351.5,-85 191.5,-85 191.5,-66 351.5,-66 351.5,-85"/>
<text text-anchor="middle" x="271.5" y="-73" font-family="Helvetica,sans-Serif" font-size="10.00">netoptim/network_oracle.hpp</text>
</a>
</g>
</g>
<!-- Node1&#45;&gt;Node3 -->
<g id="edge2_Node000001_Node000003" class="edge">
<title>Node1&#45;&gt;Node3</title>
<g id="a_edge2_Node000001_Node000003"><a xlink:title=" ">
<path fill="none" stroke="#63b8ff" d="M209.81,-115.42C225.05,-105.81 244.77,-93.37 257.76,-85.17"/>
<polygon fill="#63b8ff" stroke="#63b8ff" points="207.59,-112.69 201,-120.98 211.32,-118.61 207.59,-112.69"/>
</a>
</g>
</g>
<!-- Node4 -->
<g id="Node000004" class="node">
<title>Node4</title>
<g id="a_Node000004"><a xlink:href="optscaling__oracle_8hpp.html" target="_top" xlink:title="Oracle for Optimal Matrix Scaling Problem.">
<polygon fill="white" stroke="#666666" points="382.5,-30 268.5,-30 268.5,0 382.5,0 382.5,-30"/>
<text text-anchor="start" x="276.5" y="-18" font-family="Helvetica,sans-Serif" font-size="10.00">netoptim/optscaling</text>
<text text-anchor="middle" x="325.5" y="-7" font-family="Helvetica,sans-Serif" font-size="10.00">_oracle.hpp</text>
</a>
</g>
</g>
<!-- Node1&#45;&gt;Node4 -->
<g id="edge4_Node000001_Node000004" class="edge">
<title>Node1&#45;&gt;Node4</title>
<g id="a_edge4_Node000001_Node000004"><a xlink:title=" ">
<path fill="none" stroke="#63b8ff" d="M263.62,-119.24C304.18,-112.04 348.21,-100.85 360.5,-85 373.83,-67.8 356.28,-44.74 341.58,-30.12"/>
<polygon fill="#63b8ff" stroke="#63b8ff" points="262.95,-115.8 253.68,-120.94 264.12,-122.7 262.95,-115.8"/>
</a>
</g>
</g>
<!-- Node5 -->
<g id="Node000005" class="node">
<title>Node5</title>
<g id="a_Node000005"><a xlink:href="parametric_8hpp.html" target="_top" xlink:title="Maximum parametric problem solver for network optimization.">
<polygon fill="white" stroke="#666666" points="173.5,-85 35.5,-85 35.5,-66 173.5,-66 173.5,-85"/>
<text text-anchor="middle" x="104.5" y="-73" font-family="Helvetica,sans-Serif" font-size="10.00">netoptim/parametric.hpp</text>
</a>
</g>
</g>
<!-- Node1&#45;&gt;Node5 -->
<g id="edge5_Node000001_Node000005" class="edge">
<title>Node1&#45;&gt;Node5</title>
<g id="a_edge5_Node000001_Node000005"><a xlink:title=" ">
<path fill="none" stroke="#63b8ff" d="M165.46,-115.42C150.39,-105.81 130.91,-93.37 118.08,-85.17"/>
<polygon fill="#63b8ff" stroke="#63b8ff" points="163.85,-118.55 174.16,-120.98 167.62,-112.65 163.85,-118.55"/>
</a>
</g>
</g>
<!-- Node3&#45;&gt;Node4 -->
<g id="edge3_Node000003_Node000004" class="edge">
<title>Node3&#45;&gt;Node4</title>
<g id="a_edge3_Node000003_Node000004"><a xlink:title=" ">
<path fill="none" stroke="#63b8ff" d="M286.34,-58.43C294.52,-49.56 304.59,-38.65 312.47,-30.11"/>
<polygon fill="#63b8ff" stroke="#63b8ff" points="283.68,-56.15 279.47,-65.87 288.82,-60.89 283.68,-56.15"/>
</a>
</g>
</g>
<!-- Node5&#45;&gt;Node2 -->
<g id="edge6_Node000005_Node000002" class="edge">
<title>Node5&#45;&gt;Node2</title>
<g id="a_edge6_Node000005_Node000002"><a xlink:title=" ">
<path fill="none" stroke="#63b8ff" d="M90.86,-57.88C83.67,-49.11 74.94,-38.48 68.08,-30.11"/>
<polygon fill="#63b8ff" stroke="#63b8ff" points="88.37,-60.36 97.42,-65.87 93.78,-55.92 88.37,-60.36"/>
</a>
</g>
</g>
</g>
</svg>
